<?xml version="1.0" encoding="UTF-8"?>
<!DOCTYPE svg PUBLIC "-//W3C//DTD SVG 1.1//EN" "http://www.w3.org/Graphics/SVG/1.1/DTD/svg11.dtd">
<svg xmlns="http://www.w3.org/2000/svg" version="1.1" width="530px" height="216px"
     style="shape-rendering:geometricPrecision; text-rendering:geometricPrecision; image-rendering:optimizeQuality; fill-rule:evenodd; clip-rule:evenodd"
     xmlns:xlink="http://www.w3.org/1999/xlink">
    <g>
        <path style="opacity:0.913" fill="#0077ae"
              d="M 143.5,168.5 C 141.345,166.466 139.012,166.133 136.5,167.5C 131.536,166.343 126.536,165.343 121.5,164.5C 121.666,170.509 121.499,176.509 121,182.5C 120.5,183 120,183.5 119.5,184C 91.1686,184.5 62.8353,184.667 34.5,184.5C 34.2172,183.711 33.7172,183.044 33,182.5C 32.8326,141.998 32.3326,101.665 31.5,61.5C 31.9528,60.5416 32.6195,59.7083 33.5,59C 52.4971,58.5001 71.4971,58.3334 90.5,58.5C 91.6758,50.4459 93.1758,42.4459 95,34.5C 96.1171,32.8757 97.6171,31.8757 99.5,31.5C 125.799,37.158 152.132,42.658 178.5,48C 183.115,49.077 184.615,51.9103 183,56.5C 175.334,93.8318 167.667,131.165 160,168.5C 158.883,170.124 157.383,171.124 155.5,171.5C 151.268,170.916 147.268,169.916 143.5,168.5 Z M 102.5,41.5 C 126.166,46.1662 149.832,50.8328 173.5,55.5C 166.716,90.8717 159.716,126.205 152.5,161.5C 142.145,159.662 131.811,157.662 121.5,155.5C 121.5,145.833 121.5,136.167 121.5,126.5C 134.19,128.071 143.69,123.404 150,112.5C 155.316,97.1083 150.816,85.6083 136.5,78C 131.566,76.8399 126.566,76.3399 121.5,76.5C 121.666,71.8215 121.499,67.1548 121,62.5C 119.833,61.3333 118.667,60.1667 117.5,59C 111.089,58.4208 104.756,58.4208 98.5,59C 100.312,53.3048 101.645,47.4714 102.5,41.5 Z M 38.5,175.5 C 38.5,170.5 38.5,165.5 38.5,160.5C 38.5,129.5 38.5,98.5 38.5,67.5C 63.1667,67.5 87.8333,67.5 112.5,67.5C 112.5,103.833 112.5,140.167 112.5,176.5C 87.661,176.831 62.9944,176.498 38.5,175.5 Z M 130.5,85.5 C 142.758,90.026 146.258,98.3593 141,110.5C 138.388,114.219 134.888,116.552 130.5,117.5C 127.391,117.736 124.391,117.403 121.5,116.5C 121.5,106.5 121.5,96.5 121.5,86.5C 124.43,85.701 127.43,85.3677 130.5,85.5 Z M 87.5,133.5 C 87.6716,134.492 87.3382,135.158 86.5,135.5C 79.1667,135.5 71.8333,135.5 64.5,135.5C 63.6618,135.158 63.3284,134.492 63.5,133.5C 67.2127,127.095 71.2127,120.762 75.5,114.5C 80.2467,120.319 84.2467,126.652 87.5,133.5 Z"/>
    </g>
    <g>
        <path style="opacity:0.664" fill="#0073a7"
              d="M 31.5,61.5 C 32.3326,101.665 32.8326,141.998 33,182.5C 33.7172,183.044 34.2172,183.711 34.5,184.5C 32.629,184.141 31.129,183.141 30,181.5C 29.3333,141.833 29.3333,102.167 30,62.5C 30.3826,61.944 30.8826,61.6107 31.5,61.5 Z"/>
    </g>
    <g>
        <path style="opacity:0.867" fill="#dddddd"
              d="M 245.5,69.5 C 251.668,69.5428 257.668,70.5428 263.5,72.5C 263.5,76.8333 263.5,81.1667 263.5,85.5C 259.193,84.5024 254.86,84.0024 250.5,84C 249.544,87.3936 249.211,90.8936 249.5,94.5C 252.85,94.335 256.183,94.5017 259.5,95C 260.833,99.3333 260.833,103.667 259.5,108C 255.848,108.499 252.182,108.665 248.5,108.5C 248.667,124.837 248.5,141.17 248,157.5C 243,158.833 238,158.833 233,157.5C 232.5,141.17 232.333,124.837 232.5,108.5C 229.482,108.665 226.482,108.498 223.5,108C 222.374,104.256 222.207,100.423 223,96.5C 225.826,94.6602 228.993,93.9935 232.5,94.5C 229.887,82.2312 234.22,73.8979 245.5,69.5 Z"/>
    </g>
    <g>
        <path style="opacity:0.864" fill="#dddddd"
              d="M 265.5,72.5 C 270.762,72.1953 275.928,72.5286 281,73.5C 281.828,101.739 281.661,129.905 280.5,158C 275.249,158.804 270.082,158.637 265,157.5C 264.176,129.095 264.343,100.761 265.5,72.5 Z"/>
    </g>
    <g>
        <path style="opacity:0.874" fill="#dddddd"
              d="M 413.5,72.5 C 418.43,72.1975 423.263,72.5308 428,73.5C 428.816,82.4117 428.65,91.245 427.5,100C 440.238,90.4016 452.072,91.5683 463,103.5C 464.75,106.246 465.75,109.246 466,112.5C 466.667,127.5 466.667,142.5 466,157.5C 465.5,158 465,158.5 464.5,159C 460.167,159.667 455.833,159.667 451.5,159C 451,158.5 450.5,158 450,157.5C 449.667,142.833 449.333,128.167 449,113.5C 448.164,109.504 445.664,107.504 441.5,107.5C 435.575,108.2 431.408,111.2 429,116.5C 428.667,130.167 428.333,143.833 428,157.5C 423.252,158.635 418.419,158.802 413.5,158C 413,157.5 412.5,157 412,156.5C 411.333,129.167 411.333,101.833 412,74.5C 412.717,73.9558 413.217,73.2891 413.5,72.5 Z"/>
    </g>
    <g>
        <path style="opacity:0.391" fill="#0b6899"
              d="M 130.5,85.5 C 127.43,85.3677 124.43,85.701 121.5,86.5C 124.122,82.9097 127.122,82.5764 130.5,85.5 Z"/>
    </g>
    <g>
        <path style="opacity:0.874" fill="#dddddd"
              d="M 313.5,93.5 C 327.234,91.9459 337.068,97.2793 343,109.5C 343.5,121.829 343.667,134.162 343.5,146.5C 345.877,146.216 348.044,146.216 350,146.5C 352.901,154.795 350.068,159.462 341.5,160.5C 335.778,159.775 331.778,156.775 329.5,151.5C 316.574,163.81 304.074,163.476 292,150.5C 287.293,141.392 289.127,133.892 297.5,128C 307.028,124.159 316.528,120.326 326,116.5C 326.667,114.5 326.667,112.5 326,110.5C 317.423,105.285 310.923,107.118 306.5,116C 301.581,116.802 296.748,116.635 292,115.5C 291.159,111.88 291.826,108.546 294,105.5C 298.969,98.7765 305.469,94.7765 313.5,93.5 Z M 326.5,129.5 C 327.239,129.369 327.906,129.536 328.5,130C 326.584,141.248 319.917,146.581 308.5,146C 304.5,142.667 304.5,139.333 308.5,136C 314.571,133.701 320.571,131.535 326.5,129.5 Z"/>
    </g>
    <g>
        <path style="opacity:0.866" fill="#dddddd"
              d="M 372.5,93.5 C 383.076,92.4116 391.909,95.7449 399,103.5C 401.472,107.133 401.972,110.966 400.5,115C 395.833,115.667 391.167,115.667 386.5,115C 383.084,107.334 377.584,105.5 370,109.5C 369.104,112.025 369.604,114.192 371.5,116C 378.833,119 386.167,122 393.5,125C 403.785,130.751 406.285,138.917 401,149.5C 392.128,159.081 381.295,162.247 368.5,159C 356.588,155.133 351.254,147.133 352.5,135C 357.167,134.333 361.833,134.333 366.5,135C 368.641,145.907 374.975,149.24 385.5,145C 388.405,141.626 388.072,138.626 384.5,136C 377.086,133.195 369.753,130.195 362.5,127C 353.173,120.728 351.006,112.561 356,102.5C 360.534,97.487 366.034,94.487 372.5,93.5 Z"/>
    </g>
    <g>
        <path style="opacity:0.872" fill="#dddddd"
              d="M 472.5,94.5 C 477.511,94.3341 482.511,94.5007 487.5,95C 492.912,108.233 497.746,121.733 502,135.5C 505.731,121.974 510.064,108.641 515,95.5C 520.082,94.363 525.249,94.1963 530.5,95C 530.957,95.414 531.291,95.914 531.5,96.5C 522.568,121.462 513.735,146.462 505,171.5C 499.229,183.403 490.563,186.403 479,180.5C 478.333,177.167 478.333,173.833 479,170.5C 481.758,169.883 484.591,169.716 487.5,170C 490.456,166.142 492.456,161.809 493.5,157C 486.306,136.779 478.973,116.613 471.5,96.5C 471.863,95.8165 472.196,95.1499 472.5,94.5 Z"/>
    </g>
    <g>
        <path style="opacity:0.889" fill="#0077ad"
              d="M 73.5,101.5 C 77.6826,100.846 80.516,102.512 82,106.5C 87.4969,116.831 93.4969,126.831 100,136.5C 100.896,139.025 100.396,141.192 98.5,143C 83.1667,143.667 67.8333,143.667 52.5,143C 50.0155,140.716 49.8489,138.216 52,135.5C 58.9401,123.937 66.1068,112.603 73.5,101.5 Z M 87.5,133.5 C 87.6716,134.492 87.3382,135.158 86.5,135.5C 79.1667,135.5 71.8333,135.5 64.5,135.5C 63.6618,135.158 63.3284,134.492 63.5,133.5C 67.2127,127.095 71.2127,120.762 75.5,114.5C 80.2467,120.319 84.2467,126.652 87.5,133.5 Z"/>
    </g>
    <g>
        <path style="opacity:0.769" fill="#0a6390"
              d="M 121.5,116.5 C 124.391,117.403 127.391,117.736 130.5,117.5C 127.124,120.236 124.124,119.903 121.5,116.5 Z"/>
    </g>
    <g>
        <path style="opacity:0.669" fill="#115582"
              d="M 63.5,133.5 C 63.3284,134.492 63.6618,135.158 64.5,135.5C 63.791,136.404 62.791,136.737 61.5,136.5C 61.2852,134.821 61.9519,133.821 63.5,133.5 Z"/>
    </g>
    <g>
        <path style="opacity:0.863" fill="#13517f"
              d="M 87.5,133.5 C 89.0481,133.821 89.7148,134.821 89.5,136.5C 88.209,136.737 87.209,136.404 86.5,135.5C 87.3382,135.158 87.6716,134.492 87.5,133.5 Z"/>
    </g>
    <g>
        <path style="opacity:0.227" fill="#046ea2"
              d="M 38.5,160.5 C 38.5,165.5 38.5,170.5 38.5,175.5C 37.8826,175.389 37.3826,175.056 37,174.5C 36.3333,170.167 36.3333,165.833 37,161.5C 37.3826,160.944 37.8826,160.611 38.5,160.5 Z"/>
    </g>
    <g>
        <path style="opacity:0.227" fill="#096391"
              d="M 136.5,167.5 C 139.012,166.133 141.345,166.466 143.5,168.5C 141.097,168.552 138.764,168.219 136.5,167.5 Z"/>
    </g>
</svg>
